# xmcd
#
# Track frame offsets: 
#        300
#        17407
#        32245
#        46841
#        57542
#        67091
#        79579
#        90392
#        103675
#        117642
#        130265
#        143665
#
# Disc length: 2117 seconds
#
# Revision: 0
# Processed by: cddbd v1.5.2PL0 Copyright (c) Steve Scherf et al.
# Submitted via: ExactAudioCopy v0.95b3
#
DISCID=a208410c
DTITLE=Hellbound Glory - Hellbound Glory
DYEAR=2006
DGENRE=Country
TTITLE0=Too Broke To Overdose
TTITLE1=Hard Livin' Man
TTITLE2=Be My Crutch
TTITLE3=Livin' On Pabst Blue Ribbon
TTITLE4=Hank Williams Records
TTITLE5=Either Way We're Fucked
TTITLE6=Possessed
TTITLE7=Chico's Train
TTITLE8=Mickey Meth (Downtown)
TTITLE9=Dial 911
TTITLE10=Whiskey Bent And Hell Bound
TTITLE11=Honky Tonk Heroes
EXTD=
EXTT0=
EXTT1=
EXTT2=
EXTT3=
EXTT4=
EXTT5=
EXTT6=
EXTT7=
EXTT8=
EXTT9=
EXTT10=
EXTT11=
PLAYORDER=
